<svg width="15" height="16" viewBox="0 0 15 16" fill="none" xmlns="http://www.w3.org/2000/svg">
<g clip-path="url(#clip0_1_99)">
<path d="M7.49999 0.812988C3.35624 0.812988 -7.62939e-06 4.11299 -7.62939e-06 8.18299C-7.62939e-06 11.4399 2.14874 14.2017 5.12812 15.1755C5.50312 15.2449 5.64062 15.0167 5.64062 14.8211C5.64062 14.6461 5.63437 14.1824 5.63124 13.568C3.54499 14.0124 3.10499 12.5792 3.10499 12.5792C2.76374 11.7286 2.27062 11.5011 2.27062 11.5011C1.59124 11.0442 2.32312 11.0536 2.32312 11.0536C3.07624 11.1049 3.47187 11.813 3.47187 11.813C4.14062 12.9399 5.22749 12.6142 5.65624 12.4261C5.72374 11.9492 5.91687 11.6249 6.13124 11.4405C4.46562 11.2561 2.71499 10.6224 2.71499 7.79861C2.71499 6.99424 3.00562 6.33674 3.48687 5.82111C3.40249 5.63486 3.14937 4.88549 3.55249 3.87049C3.55249 3.87049 4.18062 3.67299 5.61499 4.62611C6.21499 4.46236 6.85249 4.38111 7.48999 4.37736C8.12749 4.38111 8.76499 4.46236 9.36499 4.62611C10.79 3.67299 11.4181 3.87049 11.4181 3.87049C11.8212 4.88549 11.5681 5.63486 11.4931 5.82111C11.9712 6.33674 12.2619 6.99424 12.2619 7.79861C12.2619 10.6299 10.5087 11.253 8.83999 11.4342C9.10249 11.6555 9.34624 12.1074 9.34624 12.798C9.34624 13.7842 9.33687 14.5767 9.33687 14.8161C9.33687 15.0092 9.46812 15.2399 9.85249 15.1661C12.8531 14.1986 15 11.4349 15 8.18299C15 4.11299 11.6419 0.812988 7.49999 0.812988Z" fill="white"/>
</g>
<defs>
<clipPath id="clip0_1_99">
<rect width="15" height="15" fill="white" transform="translate(0 0.5)"/>
</clipPath>
</defs>
</svg>
