<svg width="17" height="123" viewBox="0 0 17 123" fill="none" xmlns="http://www.w3.org/2000/svg">
<path d="M8.45459 122.543L0.58162 108.907L16.3275 108.907L8.45459 122.543ZM7.09094 109.467L7.09094 100.749L9.81821 100.749L9.81822 109.467L7.09094 109.467ZM7.09093 92.0316L7.09092 83.3141L9.81819 83.3141L9.8182 92.0316L7.09093 92.0316ZM7.09091 74.5966L7.09091 65.8791L9.81818 65.8791L9.81819 74.5966L7.09091 74.5966ZM7.0909 57.1616L7.09089 48.444L9.81816 48.444L9.81817 57.1616L7.0909 57.1616ZM7.09089 39.7265L7.09088 31.009L9.81815 31.009L9.81816 39.7265L7.09089 39.7265ZM7.09087 22.2915L7.09086 13.574L9.81814 13.574L9.81814 22.2915L7.09087 22.2915ZM7.09086 4.85643L7.09085 0.497681L9.81813 0.49768L9.81813 4.85643L7.09086 4.85643Z" fill="url(#paint0_linear_563_928)" fill-opacity="0.7"/>
<defs>
<linearGradient id="paint0_linear_563_928" x1="8.45458" y1="109.118" x2="8.45446" y2="109.118" gradientUnits="userSpaceOnUse">
<stop stop-color="#15BFFD"/>
<stop offset="1" stop-color="#9C37FD"/>
</linearGradient>
</defs>
</svg>
