<svg width="62" height="62" viewBox="0 0 62 62" fill="none" xmlns="http://www.w3.org/2000/svg">
<path d="M23.25 36.1666L38.75 20.6666" stroke="#15BFFD" stroke-width="5.16667" stroke-linecap="round" stroke-linejoin="round"/>
<path d="M24.5417 23.25C25.255 23.25 25.8333 22.6717 25.8333 21.9583C25.8333 21.2449 25.255 20.6666 24.5417 20.6666C23.8283 20.6666 23.25 21.2449 23.25 21.9583C23.25 22.6717 23.8283 23.25 24.5417 23.25Z" fill="#15BFFD" stroke="#15BFFD" stroke-width="5.16667" stroke-linecap="round" stroke-linejoin="round"/>
<path d="M37.4582 36.1667C38.1715 36.1667 38.7498 35.5884 38.7498 34.875C38.7498 34.1617 38.1715 33.5834 37.4582 33.5834C36.7448 33.5834 36.1665 34.1617 36.1665 34.875C36.1665 35.5884 36.7448 36.1667 37.4582 36.1667Z" fill="#15BFFD" stroke="#15BFFD" stroke-width="5.16667" stroke-linecap="round" stroke-linejoin="round"/>
<path d="M12.9165 54.25V12.9167C12.9165 11.5464 13.4608 10.2322 14.4298 9.26328C15.3987 8.29434 16.7129 7.75 18.0832 7.75H43.9165C45.2868 7.75 46.601 8.29434 47.5699 9.26328C48.5388 10.2322 49.0832 11.5464 49.0832 12.9167V54.25L41.3332 49.0833L36.1665 54.25L30.9998 49.0833L25.8332 54.25L20.6665 49.0833L12.9165 54.25Z" stroke="#15BFFD" stroke-width="5.16667" stroke-linecap="round" stroke-linejoin="round"/>
</svg>
