<svg width="63" height="62" viewBox="0 0 63 62" fill="none" xmlns="http://www.w3.org/2000/svg">
<path d="M6.88281 5.82385C15.2455 10.7645 21.6881 17.53 22.0119 24.389C15.9778 24.4694 13.2316 22.6443 9.66397 18.2132C11.8104 29.4834 16.3717 35.6331 21.8605 37.172C19.1957 40.4377 14.4857 40.86 10.0388 40.2408C14.3857 44.3487 21.5572 48.8279 28.0931 50.5035C26.0285 52.361 23.4017 53.4722 19.8587 54.0342C52.4712 67.8736 66.6683 55.2778 55.6077 20.4457C54.1503 23.5367 52.0826 25.4241 48.3005 27.4086C47.3431 20.7123 44.497 8.98779 36.7172 6.61072C39.6673 11.6619 39.3788 18.6529 36.2328 23.4351C32.8635 14.8606 19.9654 6.57318 6.88281 5.82385ZM44.2136 34.4814C47.3774 34.4657 50.5193 35.8151 52.7092 38.4436C56.6023 43.1159 55.9739 50.0238 51.3015 53.917C46.6289 57.8101 39.721 57.1816 35.8281 52.5092C31.9349 47.8367 32.5632 40.9288 37.2357 37.0359C39.2798 35.3325 41.7528 34.4936 44.2136 34.4814Z" fill="#15BFFD"/>
</svg>
