<svg width="63" height="62" viewBox="0 0 63 62" fill="none" xmlns="http://www.w3.org/2000/svg">
<path d="M31.7324 3.02734C30.3285 3.02734 28.9473 4.57734 28.9473 6.78125C28.9473 8.98516 30.3285 10.5352 31.7324 10.5352C33.1364 10.5352 34.5176 8.98516 34.5176 6.78125C34.5176 4.57734 33.1364 3.02734 31.7324 3.02734ZM19.1446 3.3876L17.1952 4.3624C19.0228 8.01762 23.4158 11.2417 27.1477 13.3769L28.8666 35.7227H30.6426V23.25H32.8223V35.7227H34.5982L36.3172 13.3769C40.049 11.2417 44.4421 8.01762 46.2696 4.3624L44.3202 3.3876C41.9093 7.0083 38.8842 9.33911 35.6821 10.3832C34.7974 11.78 33.3975 12.7148 31.7324 12.7148C30.0674 12.7148 28.6675 11.78 27.7827 10.3831C24.5806 9.33923 21.5556 7.0083 19.1446 3.3876ZM21.1973 37.9023V49.5273H3.75977V58.9727H59.7051V55.3398H42.2676V37.9023H21.1973Z" fill="#15BFFD"/>
</svg>
