<svg width="63" height="62" viewBox="0 0 63 62" fill="none" xmlns="http://www.w3.org/2000/svg">
<g clip-path="url(#clip0_1166_1203)">
<path d="M31.0986 20.6667L23.3486 25.1875V34.2292L31.0986 38.75L38.8486 34.2292V25.1875L31.0986 20.6667ZM35.0175 25.9367L31.0651 28.241L27.1461 25.9547L31.0986 23.6504L35.0175 25.9367ZM25.9061 28.2152L29.7398 30.4523V34.9732L25.9061 32.7386V28.2152ZM32.2973 35.0687V30.504L36.2911 28.1738V32.7386L32.2973 35.0687ZM7.84863 0L0.0986328 4.52083V13.5625L7.84863 18.0833L15.5986 13.5625V4.52083L7.84863 0ZM11.7675 5.27L7.81505 7.57433L3.89613 5.28808L7.84863 2.98375L11.7675 5.27ZM2.65613 7.54592L6.4898 9.78308V14.3039L2.65613 12.0745V7.54592ZM9.0473 14.3995V9.83733L13.0411 7.50717V12.0719L9.0473 14.3995ZM7.84863 43.9167L0.0986328 48.4375V57.4792L7.84863 62L15.5986 57.4792V48.4375L7.84863 43.9167ZM11.7675 49.1867L7.81505 51.491L3.89613 49.2048L7.84863 46.9004L11.7675 49.1867ZM2.65613 51.4652L6.4898 53.7023V58.2232L2.65613 55.9912V51.4652ZM9.0473 58.3187V53.754L13.0411 51.4238V55.9886L9.0473 58.3187ZM54.3486 0L46.5986 4.52083V13.5625L54.3486 18.0833L62.0986 13.5625V4.52083L54.3486 0ZM58.2675 5.27L54.315 7.57433L50.3961 5.28808L54.3486 2.98375L58.2675 5.27ZM49.1561 7.5485L52.9898 9.78567V14.3065L49.1561 12.0719V7.5485ZM55.5473 14.4021V9.83733L59.5411 7.50717V12.0719L55.5473 14.4021ZM54.3486 43.9167L46.5986 48.4375V57.4792L54.3486 62L62.0986 57.4792V48.4375L54.3486 43.9167ZM58.2675 49.1867L54.315 51.491L50.3961 49.2048L54.3486 46.9004L58.2675 49.1867ZM49.1561 51.4652L52.9898 53.7023V58.2232L49.1561 55.9886V51.4652ZM55.5473 58.3187V53.754L59.5411 51.4238V55.9886L55.5473 58.3187ZM23.3486 7.75H38.8486V10.3333H23.3486V7.75ZM23.3486 51.6667H38.8486V54.25H23.3486V51.6667ZM9.1403 23.25V38.75H6.55697V23.25H9.1403ZM18.9389 22.8057L13.4596 17.3264L15.286 15.5L20.7653 20.9767L18.9389 22.8057ZM41.432 21.4236L46.9112 15.9443L48.7376 17.7708L43.2584 23.25L41.432 21.4236ZM21.096 38.4374L15.6167 43.9167L13.7903 42.0902L19.2695 36.611L21.096 38.4374ZM43.7027 36.4999L49.182 41.9792L47.3555 43.8056L41.8763 38.3263L43.7027 36.4999ZM55.6403 23.25V38.75H53.057V23.25H55.6403Z" fill="#15BFFD"/>
</g>
<defs>
<clipPath id="clip0_1166_1203">
<rect width="62" height="62" fill="white" transform="translate(0.0986328)"/>
</clipPath>
</defs>
</svg>
