<svg width="63" height="62" viewBox="0 0 63 62" fill="none" xmlns="http://www.w3.org/2000/svg">
<path d="M56.459 37.8842L52.4932 34.4936C52.6809 33.3432 52.7777 32.1686 52.7777 30.994C52.7777 29.8194 52.6809 28.6448 52.4932 27.4944L56.459 24.1038C56.7581 23.8477 56.9722 23.5066 57.0728 23.1259C57.1734 22.7452 57.1557 22.3429 57.0221 21.9725L56.9676 21.8151C55.8758 18.7637 54.2409 15.935 52.142 13.4657L52.033 13.3385C51.7784 13.0391 51.439 12.8239 51.0597 12.7212C50.6803 12.6186 50.2787 12.6332 49.9078 12.7633L44.9854 14.5131C43.169 13.0237 41.1406 11.8491 38.9488 11.0256L37.9983 5.87915C37.9265 5.49191 37.7387 5.13565 37.4597 4.85771C37.1806 4.57977 36.8237 4.39331 36.4361 4.3231L36.2727 4.29282C33.1182 3.72368 29.8002 3.72368 26.6457 4.29282L26.4822 4.3231C26.0947 4.39331 25.7377 4.57977 25.4587 4.85771C25.1797 5.13565 24.9918 5.49191 24.9201 5.87915L23.9635 11.0499C21.7892 11.8735 19.7644 13.0474 17.9693 14.5252L13.0106 12.7633C12.6398 12.6322 12.2379 12.617 11.8583 12.7197C11.4787 12.8225 11.1394 13.0383 10.8854 13.3385L10.7764 13.4657C8.67992 15.9367 7.04534 18.765 5.95079 21.8151L5.8963 21.9725C5.62384 22.7293 5.84786 23.577 6.45939 24.1038L10.4736 27.5307C10.286 28.669 10.1951 29.8315 10.1951 30.9879C10.1951 32.1504 10.286 33.3129 10.4736 34.4452L6.45939 37.8721C6.16026 38.1282 5.94617 38.4693 5.84559 38.85C5.745 39.2307 5.76269 39.633 5.8963 40.0034L5.95079 40.1608C7.04669 43.2124 8.66935 46.0278 10.7764 48.5102L10.8854 48.6374C11.14 48.9367 11.4794 49.152 11.8587 49.2546C12.2381 49.3573 12.6397 49.3426 13.0106 49.2126L17.9693 47.4506C19.7736 48.934 21.7899 50.1086 23.9635 50.926L24.9201 56.0967C24.9918 56.484 25.1797 56.8402 25.4587 57.1182C25.7377 57.3961 26.0947 57.5826 26.4822 57.6528L26.6457 57.6831C29.8292 58.2552 33.0892 58.2552 36.2727 57.6831L36.4361 57.6528C36.8237 57.5826 37.1806 57.3961 37.4597 57.1182C37.7387 56.8402 37.9265 56.484 37.9983 56.0967L38.9488 50.9502C41.1397 50.129 43.1795 48.9505 44.9854 47.4627L49.9078 49.2126C50.2786 49.3437 50.6805 49.3589 51.0601 49.2561C51.4397 49.1534 51.779 48.9376 52.033 48.6374L52.142 48.5102C54.249 46.0217 55.8717 43.2124 56.9676 40.1608L57.0221 40.0034C57.2945 39.2586 57.0705 38.411 56.459 37.8842ZM48.1943 28.2088C48.3457 29.1231 48.4244 30.0616 48.4244 31C48.4244 31.9385 48.3457 32.877 48.1943 33.7913L47.7947 36.2192L52.3176 40.0881C51.6319 41.6677 50.7665 43.163 49.7383 44.5444L44.1195 42.5524L42.2184 44.1145C40.7713 45.3012 39.1608 46.2336 37.417 46.8876L35.1102 47.7534L34.0264 53.6264C32.3164 53.8202 30.5899 53.8202 28.8799 53.6264L27.7961 47.7413L25.5074 46.8633C23.7818 46.2094 22.1774 45.277 20.7424 44.0963L18.8412 42.5282L13.1861 44.5383C12.1568 43.1518 11.2971 41.6563 10.6068 40.0821L15.1781 36.1768L14.7846 33.7549C14.6393 32.8528 14.5606 31.9204 14.5606 31C14.5606 30.0737 14.6332 29.1473 14.7846 28.2452L15.1781 25.8233L10.6068 21.918C11.291 20.3377 12.1568 18.8483 13.1861 17.4618L18.8412 19.4719L20.7424 17.9038C22.1774 16.7231 23.7818 15.7907 25.5074 15.1368L27.8022 14.2709L28.8859 8.38579C30.5873 8.19204 32.325 8.19204 34.0324 8.38579L35.1162 14.2588L37.4231 15.1247C39.1608 15.7786 40.7774 16.711 42.2244 17.8977L44.1256 19.4598L49.7444 17.4678C50.7736 18.8543 51.6334 20.3499 52.3236 21.9241L47.8008 25.793L48.1943 28.2088ZM31.4652 19.7383C25.5801 19.7383 20.809 24.5094 20.809 30.3946C20.809 36.2797 25.5801 41.0508 31.4652 41.0508C37.3504 41.0508 42.1215 36.2797 42.1215 30.3946C42.1215 24.5094 37.3504 19.7383 31.4652 19.7383ZM36.2606 35.1899C35.6316 35.8207 34.8842 36.3208 34.0612 36.6617C33.2382 37.0025 32.356 37.1772 31.4652 37.1758C29.6549 37.1758 27.9535 36.4674 26.6699 35.1899C26.0392 34.5609 25.539 33.8135 25.1982 32.9905C24.8574 32.1676 24.6826 31.2853 24.684 30.3946C24.684 28.5842 25.3924 26.8829 26.6699 25.5993C27.9535 24.3157 29.6549 23.6133 31.4652 23.6133C33.2756 23.6133 34.977 24.3157 36.2606 25.5993C36.8913 26.2282 37.3915 26.9757 37.7323 27.7986C38.0731 28.6216 38.2479 29.5038 38.2465 30.3946C38.2465 32.2049 37.5381 33.9063 36.2606 35.1899Z" fill="#15BFFD"/>
</svg>
