<svg width="63" height="62" viewBox="0 0 63 62" fill="none" xmlns="http://www.w3.org/2000/svg">
<path d="M31.8298 23.25L22.7881 14.2083L31.8298 5.16663L40.8714 14.2083L31.8298 23.25ZM3.41309 51.6666V41.3333C3.41309 39.8694 3.91942 38.6423 4.93209 37.652C5.94475 36.6618 7.16064 36.1666 8.57975 36.1666H17.0402C17.9013 36.1666 18.7193 36.3819 19.4943 36.8125C20.2693 37.243 20.8936 37.8243 21.3673 38.5562C22.6159 40.2354 24.1555 41.5486 25.9863 42.4958C27.817 43.443 29.7648 43.9166 31.8298 43.9166C33.9395 43.9166 35.9097 43.443 37.7404 42.4958C39.5711 41.5486 41.0884 40.2354 42.2923 38.5562C42.852 37.8243 43.509 37.243 44.2633 36.8125C45.0177 36.3819 45.803 36.1666 46.6193 36.1666H55.0798C56.5436 36.1666 57.7707 36.6618 58.761 37.652C59.7513 38.6423 60.2464 39.8694 60.2464 41.3333V51.6666H42.1631V45.7895C40.6561 46.8659 39.0304 47.684 37.2858 48.2437C35.5411 48.8034 33.7225 49.0833 31.8298 49.0833C29.9784 49.0833 28.17 48.7922 26.4048 48.2101C24.6395 47.628 23.0034 46.7996 21.4964 45.725V51.6666H3.41309ZM11.1631 33.5833C9.01031 33.5833 7.18045 32.8298 5.6735 31.3229C4.16656 29.8159 3.41309 27.9861 3.41309 25.8333C3.41309 23.6375 4.16656 21.7964 5.6735 20.3101C7.18045 18.8238 9.01031 18.0816 11.1631 18.0833C13.3589 18.0833 15.2 18.8264 16.6863 20.3127C18.1725 21.799 18.9148 23.6392 18.9131 25.8333C18.9131 27.9861 18.1699 29.8159 16.6837 31.3229C15.1974 32.8298 13.3572 33.5833 11.1631 33.5833ZM52.4964 33.5833C50.3436 33.5833 48.5138 32.8298 47.0068 31.3229C45.4999 29.8159 44.7464 27.9861 44.7464 25.8333C44.7464 23.6375 45.4999 21.7964 47.0068 20.3101C48.5138 18.8238 50.3436 18.0816 52.4964 18.0833C54.6923 18.0833 56.5333 18.8264 58.0196 20.3127C59.5059 21.799 60.2481 23.6392 60.2464 25.8333C60.2464 27.9861 59.5033 29.8159 58.017 31.3229C56.5307 32.8298 54.6905 33.5833 52.4964 33.5833Z" fill="#15BFFD"/>
</svg>
