<svg width="63" height="62" viewBox="0 0 63 62" fill="none" xmlns="http://www.w3.org/2000/svg">
<path d="M31.3662 14.168C23.4709 14.168 16.3264 15.5727 11.2489 17.7645C8.71199 18.8664 6.69941 20.1621 5.36738 21.5305C4.03535 22.8988 3.39355 24.2672 3.39355 25.6719C3.39355 27.0766 4.03535 28.4449 5.36738 29.8133C6.69941 31.1816 8.71199 32.4773 11.2489 33.5793C16.3264 35.7711 23.4709 37.1758 31.3662 37.1758C39.2615 37.1758 46.4061 35.7711 51.4799 33.5793C54.0229 32.4773 56.033 31.1816 57.365 29.8133C58.6971 28.4449 59.3389 27.0766 59.3389 25.6719C59.3389 24.2672 58.6971 22.8988 57.365 21.5305C56.033 20.1621 54.0229 18.8664 51.4799 17.7645C46.4061 15.5727 39.2615 14.168 31.3662 14.168ZM3.39355 30.891V36.9699C3.39355 37.7328 4.03535 39.1012 5.36738 40.4695C6.69941 41.8379 8.71199 43.1336 11.2489 44.2355C16.3264 46.4273 23.4709 47.832 31.3662 47.832C39.2615 47.832 46.4061 46.4273 51.4799 44.2355C54.0229 43.1336 56.033 41.8379 57.365 40.4695C58.6971 39.1012 59.3389 37.7328 59.3389 36.9699V30.891C59.2057 31.0484 59.0725 31.1937 58.9272 31.3391C57.3166 32.9859 55.0764 34.4027 52.3518 35.5773C46.9025 37.9387 39.5158 39.3555 31.3662 39.3555C23.2166 39.3555 15.8299 37.9387 10.3831 35.5773C7.65969 34.4027 5.41703 32.9859 3.8077 31.3391C3.66359 31.1937 3.52676 31.0363 3.39355 30.891Z" fill="#15BFFD"/>
</svg>
