<svg width="54" height="66" viewBox="0 0 54 66" fill="none" xmlns="http://www.w3.org/2000/svg">
<path d="M53.2635 11.1831L42.3436 0.263301C42.2599 0.179313 42.1603 0.11279 42.0507 0.0675927C41.9411 0.0223953 41.8235 -0.000576269 41.7049 1.09813e-05H6.84771C6.60924 1.09813e-05 6.38054 0.0947437 6.21191 0.263369C6.04329 0.431995 5.94855 0.6607 5.94855 0.899172V5.15724H1.63159C1.39355 5.15705 1.16516 5.25133 0.996577 5.41938C0.827993 5.58743 0.732988 5.81552 0.732424 6.05356V65.0987C0.732144 65.217 0.755195 65.3341 0.800257 65.4435C0.845319 65.5528 0.911506 65.6522 0.995029 65.7359C1.07855 65.8196 1.17777 65.886 1.287 65.9314C1.39623 65.9767 1.51333 66 1.63159 66H47.4122C47.5302 66 47.6471 65.9767 47.7562 65.9315C47.8652 65.8863 47.9643 65.8201 48.0477 65.7366C48.1312 65.6531 48.1973 65.554 48.2424 65.4449C48.2875 65.3358 48.3107 65.2189 48.3106 65.1008V60.8428H52.6283C52.8666 60.8428 53.0951 60.7481 53.2636 60.5796C53.4321 60.4111 53.5267 60.1826 53.5267 59.9443V11.819C53.5268 11.7009 53.5036 11.5839 53.4584 11.4748C53.4132 11.3657 53.347 11.2666 53.2635 11.1831ZM51.7291 59.0452H7.74617V1.79762H40.8093V11.819C40.8093 11.937 40.8326 12.0539 40.8778 12.163C40.923 12.272 40.9892 12.3711 41.0727 12.4545C41.1562 12.538 41.2554 12.6041 41.3644 12.6492C41.4735 12.6944 41.5904 12.7175 41.7085 12.7174H51.7291V59.0452ZM20.0193 14.0651C20.0193 13.8268 20.114 13.5983 20.2825 13.4298C20.451 13.2613 20.6795 13.1667 20.9178 13.1667H34.0383C34.1585 13.1633 34.2781 13.184 34.3901 13.2277C34.5021 13.2713 34.6042 13.337 34.6904 13.4208C34.7765 13.5046 34.8451 13.6048 34.8918 13.7155C34.9386 13.8263 34.9627 13.9453 34.9627 14.0655C34.9627 14.1857 34.9386 14.3046 34.8918 14.4154C34.8451 14.5261 34.7765 14.6263 34.6904 14.7101C34.6042 14.7939 34.5021 14.8596 34.3901 14.9032C34.2781 14.9469 34.1585 14.9676 34.0383 14.9643H20.9178C20.7997 14.9643 20.6828 14.941 20.5738 14.8958C20.4647 14.8506 20.3657 14.7844 20.2822 14.7009C20.1988 14.6174 20.1326 14.5182 20.0875 14.4091C20.0424 14.3001 20.0192 14.1832 20.0193 14.0651ZM20.0193 18.3232C20.0193 18.2052 20.0426 18.0884 20.0877 17.9793C20.1329 17.8703 20.199 17.7713 20.2825 17.6879C20.3659 17.6044 20.465 17.5383 20.574 17.4931C20.683 17.448 20.7998 17.4247 20.9178 17.4247H37.537C37.6572 17.4213 37.7768 17.4421 37.8888 17.4857C38.0008 17.5294 38.1029 17.5951 38.1891 17.6789C38.2753 17.7626 38.3438 17.8629 38.3905 17.9736C38.4373 18.0843 38.4614 18.2033 38.4614 18.3235C38.4614 18.4437 38.4373 18.5627 38.3905 18.6734C38.3438 18.7842 38.2753 18.8844 38.1891 18.9682C38.1029 19.052 38.0008 19.1177 37.8888 19.1613C37.7768 19.205 37.6572 19.2257 37.537 19.2223H20.9178C20.7995 19.2223 20.6824 19.199 20.5731 19.1536C20.4639 19.1082 20.3647 19.0417 20.2812 18.9579C20.1977 18.8741 20.1316 18.7747 20.0867 18.6652C20.0418 18.5558 20.0189 18.4386 20.0193 18.3203V18.3232ZM13.997 24.1844H45.479C45.713 24.191 45.9352 24.2885 46.0984 24.4564C46.2616 24.6242 46.3529 24.8491 46.3529 25.0832C46.3529 25.3173 46.2616 25.5422 46.0984 25.71C45.9352 25.8778 45.713 25.9754 45.479 25.982H13.997C13.8768 25.9854 13.7572 25.9646 13.6452 25.921C13.5332 25.8773 13.4311 25.8117 13.3449 25.7279C13.2588 25.6441 13.1902 25.5438 13.1435 25.4331C13.0967 25.3224 13.0726 25.2034 13.0726 25.0832C13.0726 24.963 13.0967 24.844 13.1435 24.7333C13.1902 24.6225 13.2588 24.5223 13.3449 24.4385C13.4311 24.3547 13.5332 24.2891 13.6452 24.2454C13.7572 24.2018 13.8768 24.181 13.997 24.1844ZM13.0978 30.9497C13.0978 30.8317 13.1211 30.7148 13.1663 30.6058C13.2115 30.4967 13.2777 30.3976 13.3612 30.3142C13.4447 30.2308 13.5439 30.1646 13.653 30.1195C13.7621 30.0744 13.879 30.0512 13.997 30.0513H24.7557C24.8759 30.0479 24.9955 30.0687 25.1075 30.1123C25.2195 30.156 25.3216 30.2216 25.4078 30.3054C25.494 30.3892 25.5625 30.4895 25.6093 30.6002C25.656 30.7109 25.6801 30.8299 25.6801 30.9501C25.6801 31.0703 25.656 31.1893 25.6093 31.3C25.5625 31.4108 25.494 31.511 25.4078 31.5948C25.3216 31.6786 25.2195 31.7442 25.1075 31.7879C24.9955 31.8315 24.8759 31.8523 24.7557 31.8489H13.997C13.8787 31.8489 13.7615 31.8256 13.6523 31.7802C13.543 31.7348 13.4437 31.6683 13.3602 31.5845C13.2767 31.5007 13.2105 31.4013 13.1655 31.2919C13.1205 31.1825 13.0975 31.0652 13.0978 30.9469V30.9497ZM46.3775 30.9497C46.3775 31.0678 46.3544 31.1847 46.3093 31.2938C46.2642 31.4029 46.198 31.502 46.1146 31.5855C46.0311 31.669 45.932 31.7353 45.823 31.7804C45.7139 31.8256 45.597 31.8489 45.479 31.8489H27.808C27.6879 31.8523 27.5683 31.8315 27.4563 31.7879C27.3443 31.7442 27.2422 31.6786 27.156 31.5948C27.0698 31.511 27.0013 31.4108 26.9545 31.3C26.9077 31.1893 26.8836 31.0703 26.8836 30.9501C26.8836 30.8299 26.9077 30.7109 26.9545 30.6002C27.0013 30.4895 27.0698 30.3892 27.156 30.3054C27.2422 30.2216 27.3443 30.156 27.4563 30.1123C27.5683 30.0687 27.6879 30.0479 27.808 30.0513H45.479C45.7168 30.0513 45.9449 30.1456 46.1133 30.3134C46.2817 30.4813 46.3767 30.7091 46.3775 30.9469V30.9497ZM46.3775 36.8166C46.3775 37.0549 46.2828 37.2835 46.1143 37.452C45.9458 37.6204 45.7173 37.7151 45.479 37.7151H13.997C13.8768 37.7185 13.7572 37.6977 13.6452 37.6541C13.5332 37.6104 13.4311 37.5448 13.3449 37.461C13.2588 37.3772 13.1902 37.2769 13.1435 37.1662C13.0967 37.0555 13.0726 36.9365 13.0726 36.8163C13.0726 36.6961 13.0967 36.5771 13.1435 36.4664C13.1902 36.3556 13.2588 36.2554 13.3449 36.1716C13.4311 36.0878 13.5332 36.0222 13.6452 35.9785C13.7572 35.9349 13.8768 35.9141 13.997 35.9175H45.479C45.7169 35.9175 45.9451 36.0119 46.1136 36.1799C46.282 36.3479 46.3769 36.5759 46.3775 36.8138V36.8166ZM33.4571 43.5792H13.997C13.8768 43.5825 13.7572 43.5618 13.6452 43.5181C13.5332 43.4745 13.4311 43.4088 13.3449 43.325C13.2588 43.2412 13.1902 43.141 13.1435 43.0303C13.0967 42.9195 13.0726 42.8006 13.0726 42.6804C13.0726 42.5602 13.0967 42.4412 13.1435 42.3304C13.1902 42.2197 13.2588 42.1195 13.3449 42.0357C13.4311 41.9519 13.5332 41.8862 13.6452 41.8426C13.7572 41.7989 13.8768 41.7782 13.997 41.7816H33.4571C33.5772 41.7782 33.6968 41.7989 33.8088 41.8426C33.9208 41.8862 34.023 41.9519 34.1091 42.0357C34.1953 42.1195 34.2638 42.2197 34.3106 42.3304C34.3574 42.4412 34.3815 42.5602 34.3815 42.6804C34.3815 42.8006 34.3574 42.9195 34.3106 43.0303C34.2638 43.141 34.1953 43.2412 34.1091 43.325C34.023 43.4088 33.9208 43.4745 33.8088 43.5181C33.6968 43.5618 33.5772 43.5825 33.4571 43.5792ZM46.3775 42.68C46.3775 42.798 46.3544 42.915 46.3093 43.024C46.2642 43.1331 46.198 43.2323 46.1146 43.3158C46.0311 43.3993 45.932 43.4655 45.823 43.5107C45.7139 43.5559 45.597 43.5792 45.479 43.5792H36.5129C36.3928 43.5825 36.2732 43.5618 36.1612 43.5181C36.0492 43.4745 35.9471 43.4088 35.8609 43.325C35.7747 43.2412 35.7062 43.141 35.6594 43.0303C35.6126 42.9195 35.5885 42.8006 35.5885 42.6804C35.5885 42.5602 35.6126 42.4412 35.6594 42.3304C35.7062 42.2197 35.7747 42.1195 35.8609 42.0357C35.9471 41.9519 36.0492 41.8862 36.1612 41.8426C36.2732 41.7989 36.3928 41.7782 36.5129 41.7816H45.479C45.7173 41.7816 45.9458 41.8762 46.1143 42.0447C46.2828 42.2132 46.3775 42.4417 46.3775 42.68ZM43.4791 48.5469C43.4791 48.7854 43.3844 49.0141 43.2158 49.1827C43.0471 49.3513 42.8184 49.4461 42.58 49.4461H33.4812C33.2427 49.4461 33.014 49.3513 32.8454 49.1827C32.6768 49.0141 32.582 48.7854 32.582 48.5469C32.582 48.3084 32.6768 48.0797 32.8454 47.9111C33.014 47.7425 33.2427 47.6477 33.4812 47.6477H42.58C42.8184 47.6477 43.0471 47.7425 43.2158 47.9111C43.3844 48.0797 43.4791 48.3084 43.4791 48.5469ZM14.08 17.7171V16.3183C14.0866 16.0843 14.1842 15.8621 14.352 15.6989C14.5199 15.5357 14.7447 15.4444 14.9788 15.4444C15.2129 15.4444 15.4378 15.5357 15.6057 15.6989C15.7735 15.8621 15.8711 16.0843 15.8776 16.3183V17.7171C15.8852 17.872 15.952 18.0181 16.0643 18.1251C16.1766 18.2321 16.3258 18.2918 16.4809 18.2918C16.636 18.2918 16.7851 18.2321 16.8974 18.1251C17.0097 18.0181 17.0766 17.872 17.0841 17.7171V15.8045C17.0841 15.2879 16.8982 15.1481 16.0998 14.7748C15.3014 14.4015 14.0793 13.8302 14.0793 12.1178V10.2016C14.0802 9.72344 14.2236 9.25637 14.4912 8.86008C14.7588 8.46379 15.1385 8.15626 15.5817 7.97678V7.16775C15.5783 7.04759 15.5991 6.92798 15.6427 6.81598C15.6864 6.70398 15.7521 6.60187 15.8358 6.51568C15.9196 6.4295 16.0199 6.36099 16.1306 6.31421C16.2413 6.26743 16.3603 6.24333 16.4805 6.24333C16.6007 6.24333 16.7197 6.26743 16.8304 6.31421C16.9412 6.36099 17.0414 6.4295 17.1252 6.51568C17.209 6.60187 17.2747 6.70398 17.3183 6.81598C17.362 6.92798 17.3827 7.04759 17.3793 7.16775V7.98175C17.8227 8.16104 18.2026 8.4685 18.4704 8.86481C18.7381 9.26113 18.8816 9.7283 18.8824 10.2066V11.6032C18.8824 11.8417 18.7877 12.0704 18.6191 12.239C18.4504 12.4077 18.2217 12.5024 17.9833 12.5024C17.7448 12.5024 17.5161 12.4077 17.3475 12.239C17.1788 12.0704 17.0841 11.8417 17.0841 11.6032V10.2045C17.0766 10.0495 17.0097 9.90344 16.8974 9.79646C16.7851 9.68947 16.636 9.62979 16.4809 9.62979C16.3258 9.62979 16.1766 9.68947 16.0643 9.79646C15.952 9.90344 15.8852 10.0495 15.8776 10.2045V12.1206C15.8776 12.6365 16.0643 12.7763 16.862 13.1496C17.6597 13.5229 18.8831 14.0949 18.8831 15.8074V17.7235C18.8811 18.2007 18.7371 18.6665 18.4694 19.0616C18.2017 19.4567 17.8225 19.7631 17.38 19.9419V20.7567C17.3735 20.9907 17.2759 21.2129 17.108 21.3761C16.9402 21.5393 16.7153 21.6306 16.4812 21.6306C16.2471 21.6306 16.0223 21.5393 15.8544 21.3761C15.6866 21.2129 15.589 20.9907 15.5824 20.7567V19.9419C15.1391 19.7626 14.7593 19.4551 14.4917 19.0588C14.2241 18.6625 14.0807 18.1953 14.08 17.7171Z" fill="#15BFFD"/>
</svg>
