<svg width="15" height="16" viewBox="0 0 15 16" fill="none" xmlns="http://www.w3.org/2000/svg">
<path d="M10.625 1.75H4.375C2.64911 1.75 1.25 3.14911 1.25 4.875V11.125C1.25 12.8509 2.64911 14.25 4.375 14.25H10.625C12.3509 14.25 13.75 12.8509 13.75 11.125V4.875C13.75 3.14911 12.3509 1.75 10.625 1.75Z" stroke="white" stroke-width="1.5" stroke-linecap="round" stroke-linejoin="round"/>
<path d="M10 7.60644C10.0771 8.12659 9.98829 8.65782 9.74611 9.12457C9.50392 9.59132 9.12072 9.96982 8.65102 10.2062C8.18132 10.4426 7.64904 10.5249 7.12987 10.4414C6.61071 10.3579 6.13111 10.1127 5.75928 9.74091C5.38746 9.36909 5.14234 8.88948 5.0588 8.37032C4.97526 7.85116 5.05755 7.31887 5.29396 6.84917C5.53037 6.37947 5.90887 5.99628 6.37562 5.75409C6.84237 5.5119 7.3736 5.42306 7.89376 5.50019C8.42433 5.57887 8.91554 5.8261 9.29482 6.20538C9.67409 6.58466 9.92133 7.07586 10 7.60644Z" stroke="white" stroke-width="1.5" stroke-linecap="round" stroke-linejoin="round"/>
<path d="M10.9375 4.5625H10.9447" stroke="white" stroke-width="1.5" stroke-linecap="round" stroke-linejoin="round"/>
</svg>
