<svg width="123" height="17" viewBox="0 0 123 17" fill="none" xmlns="http://www.w3.org/2000/svg">
<path d="M122.545 8.63647L108.909 16.5094L108.909 0.763528L122.545 8.63647ZM109.469 10.0001L100.751 10.0001L100.751 7.27286L109.469 7.27285L109.469 10.0001ZM92.034 10.0001L83.3164 10.0001L83.3164 7.27287L92.034 7.27286L92.034 10.0001ZM74.5989 10.0002L65.8814 10.0002L65.8814 7.27289L74.5989 7.27288L74.5989 10.0002ZM57.1639 10.0002L48.4464 10.0002L48.4464 7.2729L57.1639 7.2729L57.1639 10.0002ZM39.7288 10.0002L31.0113 10.0002L31.0113 7.27292L39.7288 7.27291L39.7288 10.0002ZM22.2938 10.0002L13.5763 10.0002L13.5763 7.27293L22.2938 7.27293L22.2938 10.0002ZM4.85875 10.0002L0.5 10.0002L0.5 7.27294L4.85875 7.27294L4.85875 10.0002Z" fill="url(#paint0_linear_525_855)" fill-opacity="0.7"/>
<defs>
<linearGradient id="paint0_linear_525_855" x1="109.12" y1="8.63648" x2="109.12" y2="8.6366" gradientUnits="userSpaceOnUse">
<stop stop-color="#15BFFD"/>
<stop offset="1" stop-color="#9C37FD"/>
</linearGradient>
</defs>
</svg>
