<svg width="64" height="7" viewBox="0 0 64 7" fill="none" xmlns="http://www.w3.org/2000/svg">
<path d="M64 3.32056L59 0.433805L59 6.20731L64 3.32056ZM59.6364 2.82056L56.7273 2.82056L56.7273 3.82056L59.6364 3.82056L59.6364 2.82056ZM53.8182 2.82056L50.9091 2.82056L50.9091 3.82056L53.8182 3.82056L53.8182 2.82056ZM48 2.82056L45.0909 2.82056L45.0909 3.82056L48 3.82056L48 2.82056ZM42.1818 2.82055L39.2727 2.82055L39.2727 3.82055L42.1818 3.82055L42.1818 2.82055ZM36.3636 2.82055L33.4545 2.82055L33.4545 3.82055L36.3636 3.82055L36.3636 2.82055ZM30.5454 2.82055L27.6364 2.82055L27.6364 3.82055L30.5454 3.82055L30.5454 2.82055ZM24.7273 2.82055L21.8182 2.82055L21.8182 3.82055L24.7273 3.82055L24.7273 2.82055ZM18.9091 2.82055L16 2.82055L16 3.82055L18.9091 3.82055L18.9091 2.82055ZM13.0909 2.82055L10.1818 2.82055L10.1818 3.82055L13.0909 3.82055L13.0909 2.82055ZM7.27271 2.82055L4.36362 2.82055L4.36362 3.82055L7.27271 3.82055L7.27271 2.82055ZM1.45453 2.82055L4.99808e-08 2.82055L-4.99808e-08 3.82055L1.45453 3.82055L1.45453 2.82055Z" fill="url(#paint0_linear_54_213)" fill-opacity="0.7"/>
<defs>
<linearGradient id="paint0_linear_54_213" x1="56.96" y1="3.22642" x2="56.9486" y2="1.8502" gradientUnits="userSpaceOnUse">
<stop stop-color="#15BFFD"/>
<stop offset="1" stop-color="#9C37FD"/>
</linearGradient>
</defs>
</svg>
