<svg width="64" height="7" viewBox="0 0 64 7" fill="none" xmlns="http://www.w3.org/2000/svg">
<path d="M0 3.5L5 6.38675L5 0.613249L0 3.5ZM4.36364 4L7.27273 4L7.27273 3L4.36364 3L4.36364 4ZM10.1818 4L13.0909 4L13.0909 3L10.1818 3L10.1818 4ZM16 4L18.9091 4L18.9091 3L16 3L16 4ZM21.8182 4L24.7273 4L24.7273 3L21.8182 3L21.8182 4ZM27.6364 4L30.5455 4.00001L30.5455 3.00001L27.6364 3L27.6364 4ZM33.4546 4.00001L36.3636 4.00001L36.3636 3.00001L33.4546 3.00001L33.4546 4.00001ZM39.2727 4.00001L42.1818 4.00001L42.1818 3.00001L39.2727 3.00001L39.2727 4.00001ZM45.0909 4.00001L48 4.00001L48 3.00001L45.0909 3.00001L45.0909 4.00001ZM50.9091 4.00001L53.8182 4.00001L53.8182 3.00001L50.9091 3.00001L50.9091 4.00001ZM56.7273 4.00001L59.6364 4.00001L59.6364 3.00001L56.7273 3.00001L56.7273 4.00001ZM62.5455 4.00001L64 4.00001L64 3.00001L62.5455 3.00001L62.5455 4.00001Z" fill="url(#paint0_linear_54_210)" fill-opacity="0.7"/>
<defs>
<linearGradient id="paint0_linear_54_210" x1="7.04" y1="3.59413" x2="7.05137" y2="4.97035" gradientUnits="userSpaceOnUse">
<stop stop-color="#15BFFD"/>
<stop offset="1" stop-color="#9C37FD"/>
</linearGradient>
</defs>
</svg>
