<svg width="15" height="16" viewBox="0 0 15 16" fill="none" xmlns="http://www.w3.org/2000/svg">
<g clip-path="url(#clip0_1_108)">
<path d="M13.8031 3.45812L15 2.31313V2.0625H10.8537L7.89874 9.4175L4.53687 2.0625H0.189367V2.31313L1.58749 3.99625C1.72374 4.12063 1.79499 4.3025 1.77687 4.48562V11.1C1.81999 11.3381 1.74249 11.5831 1.57499 11.7563L-7.62939e-06 13.665V13.9125H4.46562V13.6619L2.89062 11.7563C2.71999 11.5825 2.63937 11.3419 2.67374 11.1V5.37875L6.59374 13.9156H7.04937L10.42 5.37875V12.1794C10.42 12.3588 10.42 12.3956 10.3025 12.5131L9.08999 13.6862V13.9375H14.9725V13.6869L13.8037 12.5425C13.7012 12.465 13.6481 12.335 13.67 12.2087V3.79188C13.6481 3.665 13.7006 3.535 13.8031 3.45812Z" fill="white"/>
</g>
<defs>
<clipPath id="clip0_1_108">
<rect width="15" height="15" fill="white" transform="translate(0 0.5)"/>
</clipPath>
</defs>
</svg>
