<svg width="262" height="181" viewBox="0 0 262 181" fill="none" xmlns="http://www.w3.org/2000/svg">
<g opacity="0.3" clip-path="url(#clip0_116_36)">
<path d="M225.114 30.6103C226.881 38.8286 228.75 46.7669 230.684 55.835C235.393 52.9242 236.833 48.5345 236.37 44.5752C234.984 32.6974 233.316 20.7197 230.602 9.00217C229.078 2.29359 223.154 1.13531 218.114 5.82592C209.591 13.547 201.528 21.7479 193.184 29.8488C192.699 30.3089 192.023 30.859 192.01 31.3289C191.68 33.1087 191.821 34.8984 191.771 36.7781C193.38 36.7177 195.347 37.4171 196.406 36.6869C200.157 34.2263 203.539 31.4759 207.01 28.9153C208.936 27.545 210.582 26.0748 214.093 25.584C213.061 28.8538 212.118 32.3135 211.087 35.5832C186.823 102.219 122.953 143.86 51.8793 139.929C42.7252 139.362 33.7876 137.764 24.646 136.727C21.4414 136.378 18.3262 136.219 15.1216 135.869C14.7262 136.519 14.6118 137.269 14.2165 137.919C15.5962 139.359 16.8616 141.548 18.7386 142.058C24.8296 144.066 30.9206 146.074 37.3174 147.242C100.903 159.103 167.576 129.37 203.298 72.6596C210.108 61.7995 214.964 49.77 220.561 38.3203C221.76 35.9004 222.486 33.4706 223.403 30.9507C223.697 30.5807 224.36 30.5005 225.114 30.6103Z" fill="white"/>
</g>
<defs>
<clipPath id="clip0_116_36">
<rect width="250.96" height="80.9421" fill="white" transform="matrix(-0.904914 0.425593 0.426203 0.904628 227.098 0.9375)"/>
</clipPath>
</defs>
</svg>
