<svg width="15" height="16" viewBox="0 0 15 16" fill="none" xmlns="http://www.w3.org/2000/svg">
<g clip-path="url(#clip0_1_106)">
<path d="M13.3281 6.31799C12.8543 6.31799 12.4375 6.51736 12.1306 6.82799C11.0025 6.03549 9.48121 5.52549 7.79559 5.47111L8.67121 1.46736L11.4593 2.10236C11.4593 2.79486 12.0156 3.36049 12.6981 3.36049C13.3937 3.36049 13.9531 2.77986 13.9531 2.08674C13.9531 1.39361 13.3975 0.812988 12.6987 0.812988C12.2118 0.812988 11.7918 1.11111 11.5825 1.51861L8.50309 0.826113C8.34809 0.784238 8.19621 0.896738 8.15496 1.05424L7.19371 5.46799C5.52121 5.53861 4.01621 6.04799 2.88434 6.84111C2.57746 6.51736 2.14434 6.31799 1.67059 6.31799C-0.0869138 6.31799 -0.662539 8.71111 0.946836 9.52924C0.889961 9.78236 0.864336 10.0524 0.864336 10.3217C0.864336 13.0099 3.84871 15.188 7.51309 15.188C11.1931 15.188 14.1775 13.0099 14.1775 10.3217C14.1775 10.0524 14.1493 9.76986 14.08 9.51611C15.6568 8.69486 15.0762 6.31924 13.3281 6.31799ZM3.50059 9.69924C3.50059 8.99361 4.05684 8.42549 4.75559 8.42549C5.43809 8.42549 5.99496 8.98986 5.99496 9.69924C5.99496 10.3924 5.43871 10.9574 4.75559 10.9574C4.05996 10.9605 3.50059 10.3924 3.50059 9.69924ZM10.275 12.698C9.12434 13.8655 5.87746 13.8655 4.72621 12.698C4.59934 12.5855 4.59934 12.3867 4.72621 12.2586C4.83684 12.1461 5.03309 12.1461 5.14371 12.2586C6.02246 13.173 8.93746 13.1886 9.85434 12.2586C9.96496 12.1461 10.1612 12.1461 10.2718 12.2586C10.4012 12.3874 10.4012 12.5861 10.275 12.698ZM10.2493 10.9599C9.56684 10.9599 9.01059 10.3955 9.01059 9.70299C9.01059 8.99736 9.56684 8.42924 10.2493 8.42924C10.945 8.42924 11.5043 8.99361 11.5043 9.70299C11.5012 10.3924 10.945 10.9599 10.2493 10.9599Z" fill="white"/>
</g>
<defs>
<clipPath id="clip0_1_106">
<rect width="15" height="15" fill="white" transform="translate(0 0.5)"/>
</clipPath>
</defs>
</svg>
