<svg width="86" height="34" viewBox="0 0 86 34" fill="none" xmlns="http://www.w3.org/2000/svg">
<circle cx="6.5" cy="16.6398" r="6.5" fill="#15BFFD"/>
<path d="M70.4607 1.10904L85.7508 16.399C85.8298 16.4779 85.8924 16.5716 85.9352 16.6747C85.9779 16.7778 85.9999 16.8883 85.9999 17C85.9999 17.1116 85.9779 17.2221 85.9352 17.3253C85.8924 17.4284 85.8298 17.5221 85.7508 17.6009L70.4608 32.8909C70.3014 33.0503 70.0852 33.1398 69.8598 33.1398C69.6344 33.1398 69.4182 33.0503 69.2588 32.8909C69.0994 32.7315 69.0099 32.5153 69.0099 32.2899C69.0099 32.0645 69.0994 31.8483 69.2588 31.6889L83.0984 17.8494L7.84944 17.8494C7.62415 17.8494 7.4081 17.7599 7.2488 17.6006C7.08949 17.4413 7 17.2253 7 17C7 16.7747 7.08949 16.5586 7.2488 16.3993C7.4081 16.24 7.62415 16.1505 7.84944 16.1505L83.0984 16.1505L69.2588 2.311C69.0994 2.15161 69.0099 1.93543 69.0099 1.71002C69.0099 1.48461 69.0994 1.26843 69.2588 1.10904C69.4182 0.949651 69.6344 0.860105 69.8598 0.860105C70.0852 0.860105 70.3014 0.949651 70.4607 1.10904Z" fill="#15BFFD"/>
</svg>
