<svg width="11" height="13" viewBox="0 0 11 13" fill="none" xmlns="http://www.w3.org/2000/svg">
<path d="M8.62371 3.74138H6.6425C6.4774 3.74138 6.31907 3.80361 6.20233 3.91438C6.08559 4.02516 6.02 4.1754 6.02 4.33206C6.02 4.48872 6.08559 4.63896 6.20233 4.74973C6.31907 4.86051 6.4774 4.92274 6.6425 4.92274H10.2945C10.6846 4.92274 11 4.62346 11 4.2533V0.787972C11 0.631314 10.9344 0.481071 10.8177 0.370297C10.7009 0.259523 10.5426 0.197291 10.3775 0.197291C10.2124 0.197291 10.0541 0.259523 9.93733 0.370297C9.82058 0.481071 9.755 0.631314 9.755 0.787972V3.10895L7.21603 1.01401C6.78413 0.657807 6.28252 0.385818 5.73984 0.213567C5.19716 0.0413153 4.62404 -0.0278244 4.0532 0.0100951C3.48237 0.0480146 2.92499 0.192251 2.4129 0.434568C1.9008 0.676885 1.44402 1.01254 1.06864 1.42236C0.31051 2.25004 -0.0700598 3.32959 0.0106474 4.42352C0.0913546 5.51745 0.626728 6.53616 1.49899 7.25553L8.28175 12.8505C8.34327 12.9024 8.41505 12.9423 8.49293 12.9678C8.57081 12.9932 8.65324 13.0038 8.73544 12.9988C8.81765 12.9938 8.89799 12.9734 8.97182 12.9387C9.04565 12.9041 9.11149 12.8558 9.16553 12.7968C9.21957 12.7378 9.26073 12.6693 9.28663 12.5951C9.31254 12.5209 9.32266 12.4425 9.31643 12.3646C9.31019 12.2867 9.28771 12.2107 9.2503 12.141C9.21288 12.0714 9.16128 12.0095 9.09847 11.9589L2.31571 6.364C2.00167 6.11115 1.74364 5.80166 1.55657 5.45349C1.3695 5.10532 1.25712 4.72538 1.22593 4.33569C1.19475 3.946 1.24538 3.55431 1.37489 3.18333C1.50441 2.81234 1.71023 2.46944 1.98043 2.17449C2.25063 1.87953 2.57984 1.6384 2.94897 1.46506C3.31811 1.29172 3.71982 1.18962 4.13085 1.16467C4.54187 1.13973 4.95402 1.19244 5.34342 1.31975C5.73282 1.44706 6.09171 1.64644 6.39931 1.90633L8.62371 3.74138Z" fill="black"/>
</svg>
