<svg width="15" height="16" viewBox="0 0 15 16" fill="none" xmlns="http://www.w3.org/2000/svg">
<g clip-path="url(#clip0_1_101)">
<path d="M14.375 2.37494C13.7765 2.79711 13.1138 3.12001 12.4125 3.33119C12.0361 2.89838 11.5358 2.59162 10.9794 2.45239C10.423 2.31316 9.83718 2.34818 9.3013 2.55272C8.76542 2.75726 8.30528 3.12144 7.98311 3.59601C7.66095 4.07058 7.49231 4.63265 7.5 5.20619V5.83119C6.40165 5.85967 5.3133 5.61607 4.33188 5.12209C3.35046 4.62811 2.50645 3.89908 1.875 2.99994C1.875 2.99994 -0.625 8.62494 5 11.1249C3.71283 11.9987 2.17947 12.4368 0.625 12.3749C6.25 15.4999 13.125 12.3749 13.125 5.18744C13.1244 5.01335 13.1077 4.83968 13.075 4.66869C13.7129 4.03962 14.163 3.24538 14.375 2.37494Z" fill="white"/>
</g>
<defs>
<clipPath id="clip0_1_101">
<rect width="15" height="15" fill="white" transform="translate(7.62939e-06 0.5)"/>
</clipPath>
</defs>
</svg>
