<svg width="25" height="22" viewBox="0 0 25 22" fill="none" xmlns="http://www.w3.org/2000/svg">
<path d="M23 4H3C2.73478 4 2.48043 3.89464 2.29289 3.70711C2.10536 3.51957 2 3.26522 2 3C2 2.73478 2.10536 2.48043 2.29289 2.29289C2.48043 2.10536 2.73478 2 3 2H20C20.2652 2 20.5196 1.89464 20.7071 1.70711C20.8946 1.51957 21 1.26522 21 1C21 0.734784 20.8946 0.48043 20.7071 0.292893C20.5196 0.105357 20.2652 0 20 0H3C2.20435 0 1.44129 0.316071 0.87868 0.87868C0.316071 1.44129 0 2.20435 0 3V19C0 19.7956 0.316071 20.5587 0.87868 21.1213C1.44129 21.6839 2.20435 22 3 22H23C23.5304 22 24.0391 21.7893 24.4142 21.4142C24.7893 21.0391 25 20.5304 25 20V6C25 5.46957 24.7893 4.96086 24.4142 4.58579C24.0391 4.21071 23.5304 4 23 4ZM23 20H3C2.73478 20 2.48043 19.8946 2.29289 19.7071C2.10536 19.5196 2 19.2652 2 19V5.82875C2.32109 5.94257 2.65933 6.0005 3 6H23V20ZM17 12.5C17 12.2033 17.088 11.9133 17.2528 11.6666C17.4176 11.42 17.6519 11.2277 17.926 11.1142C18.2001 11.0007 18.5017 10.9709 18.7926 11.0288C19.0836 11.0867 19.3509 11.2296 19.5607 11.4393C19.7704 11.6491 19.9133 11.9164 19.9712 12.2074C20.0291 12.4983 19.9993 12.7999 19.8858 13.074C19.7723 13.3481 19.58 13.5824 19.3334 13.7472C19.0867 13.912 18.7967 14 18.5 14C18.1022 14 17.7206 13.842 17.4393 13.5607C17.158 13.2794 17 12.8978 17 12.5Z" fill="#15BFFD"/>
</svg>
